<?xml version="1.0" encoding="UTF-8" standalone="no"?>
<!-- Created with Inkscape (http://www.inkscape.org/) -->

<svg
   xmlns:dc="http://purl.org/dc/elements/1.1/"
   xmlns:cc="http://creativecommons.org/ns#"
   xmlns:rdf="http://www.w3.org/1999/02/22-rdf-syntax-ns#"
   xmlns:svg="http://www.w3.org/2000/svg"
   xmlns="http://www.w3.org/2000/svg"
   xmlns:sodipodi="http://sodipodi.sourceforge.net/DTD/sodipodi-0.dtd"
   xmlns:inkscape="http://www.inkscape.org/namespaces/inkscape"
   width="450mm"
   height="125mm"
   viewBox="0 0 450 125"
   version="1.1"
   id="svg10207"
   inkscape:version="0.92.4 (5da689c313, 2019-01-14)"
   sodipodi:docname="drawing.svg">
  <defs
     id="defs10201">
    <clipPath
       id="clipPath10225"
       clipPathUnits="userSpaceOnUse">
      <path
         style="clip-rule:evenodd"
         inkscape:connector-curvature="0"
         id="path10223"
         d="M 0,6.1035e-5 H 792 V 612.00006 H 0 Z" />
    </clipPath>
    <clipPath
       id="clipPath10237"
       clipPathUnits="userSpaceOnUse">
      <path
         style="clip-rule:evenodd"
         inkscape:connector-curvature="0"
         id="path10235"
         d="M 1.1802e-5,0 H 792.00001 V 612 H 1.1802e-5 Z" />
    </clipPath>
    <clipPath
       id="clipPath10245"
       clipPathUnits="userSpaceOnUse">
      <path
         style="clip-rule:evenodd"
         inkscape:connector-curvature="0"
         id="path10243"
         d="M 1.1802e-5,0 H 792.00001 V 612 H 1.1802e-5 Z" />
    </clipPath>
    <clipPath
       id="clipPath10253"
       clipPathUnits="userSpaceOnUse">
      <path
         style="clip-rule:evenodd"
         inkscape:connector-curvature="0"
         id="path10251"
         d="M 1.1802e-5,0 H 792.00001 V 612 H 1.1802e-5 Z" />
    </clipPath>
    <clipPath
       id="clipPath10265"
       clipPathUnits="userSpaceOnUse">
      <path
         style="clip-rule:evenodd"
         inkscape:connector-curvature="0"
         id="path10263"
         d="M 1.1802e-5,0 H 792.00001 V 612 H 1.1802e-5 Z" />
    </clipPath>
    <clipPath
       id="clipPath10277"
       clipPathUnits="userSpaceOnUse">
      <path
         style="clip-rule:evenodd"
         inkscape:connector-curvature="0"
         id="path10275"
         d="M 1.1802e-5,0 H 792.00001 V 612 H 1.1802e-5 Z" />
    </clipPath>
    <clipPath
       id="clipPath10285"
       clipPathUnits="userSpaceOnUse">
      <path
         style="clip-rule:evenodd"
         inkscape:connector-curvature="0"
         id="path10283"
         d="M 1.1802e-5,0 H 792.00001 V 612 H 1.1802e-5 Z" />
    </clipPath>
    <clipPath
       id="clipPath10293"
       clipPathUnits="userSpaceOnUse">
      <path
         style="clip-rule:evenodd"
         inkscape:connector-curvature="0"
         id="path10291"
         d="M 1.1802e-5,0 H 792.00001 V 612 H 1.1802e-5 Z" />
    </clipPath>
    <clipPath
       id="clipPath10305"
       clipPathUnits="userSpaceOnUse">
      <path
         style="clip-rule:evenodd"
         inkscape:connector-curvature="0"
         id="path10303"
         d="M 1.1802e-5,0 H 792.00001 V 612 H 1.1802e-5 Z" />
    </clipPath>
    <clipPath
       id="clipPath10317"
       clipPathUnits="userSpaceOnUse">
      <path
         style="clip-rule:evenodd"
         inkscape:connector-curvature="0"
         id="path10315"
         d="M 1.1802e-5,0 H 792.00001 V 612 H 1.1802e-5 Z" />
    </clipPath>
    <clipPath
       id="clipPath10329"
       clipPathUnits="userSpaceOnUse">
      <path
         style="clip-rule:evenodd"
         inkscape:connector-curvature="0"
         id="path10327"
         d="M 1.1802e-5,0 H 792.00001 V 612 H 1.1802e-5 Z" />
    </clipPath>
    <clipPath
       id="clipPath10337"
       clipPathUnits="userSpaceOnUse">
      <path
         style="clip-rule:evenodd"
         inkscape:connector-curvature="0"
         id="path10335"
         d="M 1.1802e-5,0 H 792.00001 V 612 H 1.1802e-5 Z" />
    </clipPath>
    <clipPath
       id="clipPath10349"
       clipPathUnits="userSpaceOnUse">
      <path
         style="clip-rule:evenodd"
         inkscape:connector-curvature="0"
         id="path10347"
         d="M 1.1802e-5,0 H 792.00001 V 612 H 1.1802e-5 Z" />
    </clipPath>
    <clipPath
       id="clipPath10361"
       clipPathUnits="userSpaceOnUse">
      <path
         style="clip-rule:evenodd"
         inkscape:connector-curvature="0"
         id="path10359"
         d="M 1.1802e-5,0 H 792.00001 V 612 H 1.1802e-5 Z" />
    </clipPath>
    <clipPath
       id="clipPath10369"
       clipPathUnits="userSpaceOnUse">
      <path
         style="clip-rule:evenodd"
         inkscape:connector-curvature="0"
         id="path10367"
         d="M 1.1802e-5,0 H 792.00001 V 612 H 1.1802e-5 Z" />
    </clipPath>
    <clipPath
       id="clipPath10377"
       clipPathUnits="userSpaceOnUse">
      <path
         style="clip-rule:evenodd"
         inkscape:connector-curvature="0"
         id="path10375"
         d="M 1.1802e-5,0 H 792.00001 V 612 H 1.1802e-5 Z" />
    </clipPath>
    <clipPath
       id="clipPath10385"
       clipPathUnits="userSpaceOnUse">
      <path
         style="clip-rule:evenodd"
         inkscape:connector-curvature="0"
         id="path10383"
         d="M 1.1802e-5,0 H 792.00001 V 612 H 1.1802e-5 Z" />
    </clipPath>
    <clipPath
       id="clipPath10393"
       clipPathUnits="userSpaceOnUse">
      <path
         style="clip-rule:evenodd"
         inkscape:connector-curvature="0"
         id="path10391"
         d="M 1.1802e-5,0 H 792.00001 V 612 H 1.1802e-5 Z" />
    </clipPath>
    <clipPath
       id="clipPath10401"
       clipPathUnits="userSpaceOnUse">
      <path
         style="clip-rule:evenodd"
         inkscape:connector-curvature="0"
         id="path10399"
         d="M 1.1802e-5,0 H 792.00001 V 612 H 1.1802e-5 Z" />
    </clipPath>
    <clipPath
       id="clipPath10409"
       clipPathUnits="userSpaceOnUse">
      <path
         style="clip-rule:evenodd"
         inkscape:connector-curvature="0"
         id="path10407"
         d="M 1.1802e-5,0 H 792.00001 V 612 H 1.1802e-5 Z" />
    </clipPath>
    <clipPath
       id="clipPath10417"
       clipPathUnits="userSpaceOnUse">
      <path
         style="clip-rule:evenodd"
         inkscape:connector-curvature="0"
         id="path10415"
         d="M 1.1802e-5,0 H 792.00001 V 612 H 1.1802e-5 Z" />
    </clipPath>
    <clipPath
       id="clipPath10425"
       clipPathUnits="userSpaceOnUse">
      <path
         style="clip-rule:evenodd"
         inkscape:connector-curvature="0"
         id="path10423"
         d="M 1.1802e-5,0 H 792.00001 V 612 H 1.1802e-5 Z" />
    </clipPath>
    <clipPath
       id="clipPath10437"
       clipPathUnits="userSpaceOnUse">
      <path
         style="clip-rule:evenodd"
         inkscape:connector-curvature="0"
         id="path10435"
         d="M 1.1802e-5,0 H 792.00001 V 612 H 1.1802e-5 Z" />
    </clipPath>
    <clipPath
       id="clipPath10449"
       clipPathUnits="userSpaceOnUse">
      <path
         style="clip-rule:evenodd"
         inkscape:connector-curvature="0"
         id="path10447"
         d="M 1.1802e-5,0 H 792.00001 V 612 H 1.1802e-5 Z" />
    </clipPath>
    <clipPath
       id="clipPath10461"
       clipPathUnits="userSpaceOnUse">
      <path
         style="clip-rule:evenodd"
         inkscape:connector-curvature="0"
         id="path10459"
         d="M 1.1802e-5,0 H 792.00001 V 612 H 1.1802e-5 Z" />
    </clipPath>
    <clipPath
       id="clipPath10473"
       clipPathUnits="userSpaceOnUse">
      <path
         style="clip-rule:evenodd"
         inkscape:connector-curvature="0"
         id="path10471"
         d="M 1.1802e-5,0 H 792.00001 V 612 H 1.1802e-5 Z" />
    </clipPath>
    <clipPath
       id="clipPath10481"
       clipPathUnits="userSpaceOnUse">
      <path
         style="clip-rule:evenodd"
         inkscape:connector-curvature="0"
         id="path10479"
         d="M 1.1802e-5,0 H 792.00001 V 612 H 1.1802e-5 Z" />
    </clipPath>
    <clipPath
       id="clipPath10489"
       clipPathUnits="userSpaceOnUse">
      <path
         style="clip-rule:evenodd"
         inkscape:connector-curvature="0"
         id="path10487"
         d="M 1.1802e-5,0 H 792.00001 V 612 H 1.1802e-5 Z" />
    </clipPath>
    <clipPath
       id="clipPath10501"
       clipPathUnits="userSpaceOnUse">
      <path
         style="clip-rule:evenodd"
         inkscape:connector-curvature="0"
         id="path10499"
         d="M 1.1802e-5,0 H 792.00001 V 612 H 1.1802e-5 Z" />
    </clipPath>
    <clipPath
       id="clipPath10513"
       clipPathUnits="userSpaceOnUse">
      <path
         style="clip-rule:evenodd"
         inkscape:connector-curvature="0"
         id="path10511"
         d="M 1.1802e-5,0 H 792.00001 V 612 H 1.1802e-5 Z" />
    </clipPath>
    <clipPath
       id="clipPath10525"
       clipPathUnits="userSpaceOnUse">
      <path
         style="clip-rule:evenodd"
         inkscape:connector-curvature="0"
         id="path10523"
         d="M 1.1802e-5,0 H 792.00001 V 612 H 1.1802e-5 Z" />
    </clipPath>
    <clipPath
       id="clipPath10537"
       clipPathUnits="userSpaceOnUse">
      <path
         style="clip-rule:evenodd"
         inkscape:connector-curvature="0"
         id="path10535"
         d="M 1.1802e-5,0 H 792.00001 V 612 H 1.1802e-5 Z" />
    </clipPath>
    <clipPath
       id="clipPath10549"
       clipPathUnits="userSpaceOnUse">
      <path
         style="clip-rule:evenodd"
         inkscape:connector-curvature="0"
         id="path10547"
         d="M 1.1802e-5,0 H 792.00001 V 612 H 1.1802e-5 Z" />
    </clipPath>
    <clipPath
       id="clipPath10561"
       clipPathUnits="userSpaceOnUse">
      <path
         style="clip-rule:evenodd"
         inkscape:connector-curvature="0"
         id="path10559"
         d="M 1.1802e-5,0 H 792.00001 V 612 H 1.1802e-5 Z" />
    </clipPath>
    <clipPath
       id="clipPath10573"
       clipPathUnits="userSpaceOnUse">
      <path
         style="clip-rule:evenodd"
         inkscape:connector-curvature="0"
         id="path10571"
         d="M 1.1802e-5,0 H 792.00001 V 612 H 1.1802e-5 Z" />
    </clipPath>
    <clipPath
       id="clipPath10585"
       clipPathUnits="userSpaceOnUse">
      <path
         style="clip-rule:evenodd"
         inkscape:connector-curvature="0"
         id="path10583"
         d="M 1.1802e-5,0 H 792.00001 V 612 H 1.1802e-5 Z" />
    </clipPath>
    <clipPath
       id="clipPath10597"
       clipPathUnits="userSpaceOnUse">
      <path
         style="clip-rule:evenodd"
         inkscape:connector-curvature="0"
         id="path10595"
         d="M 1.1802e-5,0 H 792.00001 V 612 H 1.1802e-5 Z" />
    </clipPath>
    <clipPath
       id="clipPath10609"
       clipPathUnits="userSpaceOnUse">
      <path
         style="clip-rule:evenodd"
         inkscape:connector-curvature="0"
         id="path10607"
         d="M 1.1802e-5,0 H 792.00001 V 612 H 1.1802e-5 Z" />
    </clipPath>
    <clipPath
       id="clipPath10621"
       clipPathUnits="userSpaceOnUse">
      <path
         style="clip-rule:evenodd"
         inkscape:connector-curvature="0"
         id="path10619"
         d="M 1.1802e-5,0 H 792.00001 V 612 H 1.1802e-5 Z" />
    </clipPath>
    <clipPath
       id="clipPath10633"
       clipPathUnits="userSpaceOnUse">
      <path
         style="clip-rule:evenodd"
         inkscape:connector-curvature="0"
         id="path10631"
         d="M 1.1802e-5,0 H 792.00001 V 612 H 1.1802e-5 Z" />
    </clipPath>
    <clipPath
       id="clipPath10645"
       clipPathUnits="userSpaceOnUse">
      <path
         style="clip-rule:evenodd"
         inkscape:connector-curvature="0"
         id="path10643"
         d="M 1.1802e-5,0 H 792.00001 V 612 H 1.1802e-5 Z" />
    </clipPath>
    <clipPath
       id="clipPath10657"
       clipPathUnits="userSpaceOnUse">
      <path
         style="clip-rule:evenodd"
         inkscape:connector-curvature="0"
         id="path10655"
         d="M 1.1802e-5,0 H 792.00001 V 612 H 1.1802e-5 Z" />
    </clipPath>
    <clipPath
       id="clipPath10669"
       clipPathUnits="userSpaceOnUse">
      <path
         style="clip-rule:evenodd"
         inkscape:connector-curvature="0"
         id="path10667"
         d="M 1.1802e-5,0 H 792.00001 V 612 H 1.1802e-5 Z" />
    </clipPath>
    <clipPath
       id="clipPath10681"
       clipPathUnits="userSpaceOnUse">
      <path
         style="clip-rule:evenodd"
         inkscape:connector-curvature="0"
         id="path10679"
         d="M 1.1802e-5,0 H 792.00001 V 612 H 1.1802e-5 Z" />
    </clipPath>
    <clipPath
       id="clipPath10693"
       clipPathUnits="userSpaceOnUse">
      <path
         style="clip-rule:evenodd"
         inkscape:connector-curvature="0"
         id="path10691"
         d="M 1.1802e-5,0 H 792.00001 V 612 H 1.1802e-5 Z" />
    </clipPath>
    <clipPath
       id="clipPath10705"
       clipPathUnits="userSpaceOnUse">
      <path
         style="clip-rule:evenodd"
         inkscape:connector-curvature="0"
         id="path10703"
         d="M 1.1802e-5,0 H 792.00001 V 612 H 1.1802e-5 Z" />
    </clipPath>
    <clipPath
       id="clipPath10717"
       clipPathUnits="userSpaceOnUse">
      <path
         style="clip-rule:evenodd"
         inkscape:connector-curvature="0"
         id="path10715"
         d="M 1.1802e-5,0 H 792.00001 V 612 H 1.1802e-5 Z" />
    </clipPath>
    <clipPath
       id="clipPath10729"
       clipPathUnits="userSpaceOnUse">
      <path
         style="clip-rule:evenodd"
         inkscape:connector-curvature="0"
         id="path10727"
         d="M 1.1802e-5,0 H 792.00001 V 612 H 1.1802e-5 Z" />
    </clipPath>
    <clipPath
       id="clipPath10741"
       clipPathUnits="userSpaceOnUse">
      <path
         style="clip-rule:evenodd"
         inkscape:connector-curvature="0"
         id="path10739"
         d="M 1.1802e-5,0 H 792.00001 V 612 H 1.1802e-5 Z" />
    </clipPath>
    <clipPath
       id="clipPath10753"
       clipPathUnits="userSpaceOnUse">
      <path
         style="clip-rule:evenodd"
         inkscape:connector-curvature="0"
         id="path10751"
         d="M 1.1802e-5,0 H 792.00001 V 612 H 1.1802e-5 Z" />
    </clipPath>
    <clipPath
       id="clipPath10761"
       clipPathUnits="userSpaceOnUse">
      <path
         style="clip-rule:evenodd"
         inkscape:connector-curvature="0"
         id="path10759"
         d="M 1.1802e-5,0 H 792.00001 V 612 H 1.1802e-5 Z" />
    </clipPath>
    <clipPath
       id="clipPath10773"
       clipPathUnits="userSpaceOnUse">
      <path
         style="clip-rule:evenodd"
         inkscape:connector-curvature="0"
         id="path10771"
         d="M 1.1802e-5,0 H 792.00001 V 612 H 1.1802e-5 Z" />
    </clipPath>
    <clipPath
       id="clipPath10785"
       clipPathUnits="userSpaceOnUse">
      <path
         style="clip-rule:evenodd"
         inkscape:connector-curvature="0"
         id="path10783"
         d="M 1.1802e-5,0 H 792.00001 V 612 H 1.1802e-5 Z" />
    </clipPath>
    <clipPath
       id="clipPath10793"
       clipPathUnits="userSpaceOnUse">
      <path
         style="clip-rule:evenodd"
         inkscape:connector-curvature="0"
         id="path10791"
         d="M 1.1802e-5,0 H 792.00001 V 612 H 1.1802e-5 Z" />
    </clipPath>
    <clipPath
       id="clipPath10805"
       clipPathUnits="userSpaceOnUse">
      <path
         style="clip-rule:evenodd"
         inkscape:connector-curvature="0"
         id="path10803"
         d="M 1.1802e-5,0 H 792.00001 V 612 H 1.1802e-5 Z" />
    </clipPath>
    <clipPath
       id="clipPath10817"
       clipPathUnits="userSpaceOnUse">
      <path
         style="clip-rule:evenodd"
         inkscape:connector-curvature="0"
         id="path10815"
         d="M 1.1802e-5,0 H 792.00001 V 612 H 1.1802e-5 Z" />
    </clipPath>
    <clipPath
       id="clipPath10829"
       clipPathUnits="userSpaceOnUse">
      <path
         style="clip-rule:evenodd"
         inkscape:connector-curvature="0"
         id="path10827"
         d="M 1.1802e-5,0 H 792.00001 V 612 H 1.1802e-5 Z" />
    </clipPath>
    <clipPath
       id="clipPath10841"
       clipPathUnits="userSpaceOnUse">
      <path
         style="clip-rule:evenodd"
         inkscape:connector-curvature="0"
         id="path10839"
         d="M 1.1802e-5,0 H 792.00001 V 612 H 1.1802e-5 Z" />
    </clipPath>
    <clipPath
       id="clipPath10849"
       clipPathUnits="userSpaceOnUse">
      <path
         style="clip-rule:evenodd"
         inkscape:connector-curvature="0"
         id="path10847"
         d="M 1.1802e-5,0 H 792.00001 V 612 H 1.1802e-5 Z" />
    </clipPath>
    <clipPath
       id="clipPath10857"
       clipPathUnits="userSpaceOnUse">
      <path
         style="clip-rule:evenodd"
         inkscape:connector-curvature="0"
         id="path10855"
         d="M 1.1802e-5,0 H 792.00001 V 612 H 1.1802e-5 Z" />
    </clipPath>
    <clipPath
       id="clipPath10865"
       clipPathUnits="userSpaceOnUse">
      <path
         style="clip-rule:evenodd"
         inkscape:connector-curvature="0"
         id="path10863"
         d="M 1.1802e-5,0 H 792.00001 V 612 H 1.1802e-5 Z" />
    </clipPath>
    <clipPath
       id="clipPath10873"
       clipPathUnits="userSpaceOnUse">
      <path
         style="clip-rule:evenodd"
         inkscape:connector-curvature="0"
         id="path10871"
         d="M 1.1802e-5,0 H 792.00001 V 612 H 1.1802e-5 Z" />
    </clipPath>
    <clipPath
       id="clipPath10885"
       clipPathUnits="userSpaceOnUse">
      <path
         style="clip-rule:evenodd"
         inkscape:connector-curvature="0"
         id="path10883"
         d="M 1.1802e-5,0 H 792.00001 V 612 H 1.1802e-5 Z" />
    </clipPath>
    <clipPath
       id="clipPath10893"
       clipPathUnits="userSpaceOnUse">
      <path
         style="clip-rule:evenodd"
         inkscape:connector-curvature="0"
         id="path10891"
         d="M 1.1802e-5,0 H 792.00001 V 612 H 1.1802e-5 Z" />
    </clipPath>
    <clipPath
       id="clipPath10901"
       clipPathUnits="userSpaceOnUse">
      <path
         style="clip-rule:evenodd"
         inkscape:connector-curvature="0"
         id="path10899"
         d="M 1.1802e-5,0 H 792.00001 V 612 H 1.1802e-5 Z" />
    </clipPath>
    <clipPath
       id="clipPath10913"
       clipPathUnits="userSpaceOnUse">
      <path
         style="clip-rule:evenodd"
         inkscape:connector-curvature="0"
         id="path10911"
         d="M 1.1802e-5,0 H 792.00001 V 612 H 1.1802e-5 Z" />
    </clipPath>
    <clipPath
       id="clipPath10921"
       clipPathUnits="userSpaceOnUse">
      <path
         style="clip-rule:evenodd"
         inkscape:connector-curvature="0"
         id="path10919"
         d="M 1.1802e-5,0 H 792.00001 V 612 H 1.1802e-5 Z" />
    </clipPath>
    <clipPath
       id="clipPath10933"
       clipPathUnits="userSpaceOnUse">
      <path
         style="clip-rule:evenodd"
         inkscape:connector-curvature="0"
         id="path10931"
         d="M 1.1802e-5,0 H 792.00001 V 612 H 1.1802e-5 Z" />
    </clipPath>
    <clipPath
       id="clipPath10945"
       clipPathUnits="userSpaceOnUse">
      <path
         style="clip-rule:evenodd"
         inkscape:connector-curvature="0"
         id="path10943"
         d="M 1.1802e-5,0 H 792.00001 V 612 H 1.1802e-5 Z" />
    </clipPath>
    <clipPath
       id="clipPath10957"
       clipPathUnits="userSpaceOnUse">
      <path
         style="clip-rule:evenodd"
         inkscape:connector-curvature="0"
         id="path10955"
         d="M 1.1802e-5,0 H 792.00001 V 612 H 1.1802e-5 Z" />
    </clipPath>
    <clipPath
       id="clipPath10969"
       clipPathUnits="userSpaceOnUse">
      <path
         style="clip-rule:evenodd"
         inkscape:connector-curvature="0"
         id="path10967"
         d="M 1.1802e-5,0 H 792.00001 V 612 H 1.1802e-5 Z" />
    </clipPath>
    <clipPath
       id="clipPath10977"
       clipPathUnits="userSpaceOnUse">
      <path
         style="clip-rule:evenodd"
         inkscape:connector-curvature="0"
         id="path10975"
         d="M 1.1802e-5,0 H 792.00001 V 612 H 1.1802e-5 Z" />
    </clipPath>
    <clipPath
       id="clipPath10985"
       clipPathUnits="userSpaceOnUse">
      <path
         style="clip-rule:evenodd"
         inkscape:connector-curvature="0"
         id="path10983"
         d="M 1.1802e-5,0 H 792.00001 V 612 H 1.1802e-5 Z" />
    </clipPath>
    <clipPath
       id="clipPath10997"
       clipPathUnits="userSpaceOnUse">
      <path
         style="clip-rule:evenodd"
         inkscape:connector-curvature="0"
         id="path10995"
         d="M 1.1802e-5,0 H 792.00001 V 612 H 1.1802e-5 Z" />
    </clipPath>
    <clipPath
       id="clipPath11005"
       clipPathUnits="userSpaceOnUse">
      <path
         style="clip-rule:evenodd"
         inkscape:connector-curvature="0"
         id="path11003"
         d="M 1.1802e-5,0 H 792.00001 V 612 H 1.1802e-5 Z" />
    </clipPath>
    <clipPath
       id="clipPath11017"
       clipPathUnits="userSpaceOnUse">
      <path
         style="clip-rule:evenodd"
         inkscape:connector-curvature="0"
         id="path11015"
         d="M 1.1802e-5,0 H 792.00001 V 612 H 1.1802e-5 Z" />
    </clipPath>
    <clipPath
       id="clipPath11029"
       clipPathUnits="userSpaceOnUse">
      <path
         style="clip-rule:evenodd"
         inkscape:connector-curvature="0"
         id="path11027"
         d="M 1.1802e-5,0 H 792.00001 V 612 H 1.1802e-5 Z" />
    </clipPath>
    <clipPath
       id="clipPath11041"
       clipPathUnits="userSpaceOnUse">
      <path
         style="clip-rule:evenodd"
         inkscape:connector-curvature="0"
         id="path11039"
         d="M 1.1802e-5,0 H 792.00001 V 612 H 1.1802e-5 Z" />
    </clipPath>
    <clipPath
       id="clipPath11053"
       clipPathUnits="userSpaceOnUse">
      <path
         style="clip-rule:evenodd"
         inkscape:connector-curvature="0"
         id="path11051"
         d="M 1.1802e-5,0 H 792.00001 V 612 H 1.1802e-5 Z" />
    </clipPath>
    <clipPath
       id="clipPath11065"
       clipPathUnits="userSpaceOnUse">
      <path
         style="clip-rule:evenodd"
         inkscape:connector-curvature="0"
         id="path11063"
         d="M 1.1802e-5,0 H 792.00001 V 612 H 1.1802e-5 Z" />
    </clipPath>
    <clipPath
       id="clipPath11077"
       clipPathUnits="userSpaceOnUse">
      <path
         style="clip-rule:evenodd"
         inkscape:connector-curvature="0"
         id="path11075"
         d="M 1.1802e-5,0 H 792.00001 V 612 H 1.1802e-5 Z" />
    </clipPath>
    <clipPath
       id="clipPath11085"
       clipPathUnits="userSpaceOnUse">
      <path
         style="clip-rule:evenodd"
         inkscape:connector-curvature="0"
         id="path11083"
         d="M 1.1802e-5,0 H 792.00001 V 612 H 1.1802e-5 Z" />
    </clipPath>
    <clipPath
       id="clipPath11097"
       clipPathUnits="userSpaceOnUse">
      <path
         style="clip-rule:evenodd"
         inkscape:connector-curvature="0"
         id="path11095"
         d="M 1.1802e-5,0 H 792.00001 V 612 H 1.1802e-5 Z" />
    </clipPath>
    <clipPath
       id="clipPath11109"
       clipPathUnits="userSpaceOnUse">
      <path
         style="clip-rule:evenodd"
         inkscape:connector-curvature="0"
         id="path11107"
         d="M 1.1802e-5,0 H 792.00001 V 612 H 1.1802e-5 Z" />
    </clipPath>
    <clipPath
       id="clipPath11121"
       clipPathUnits="userSpaceOnUse">
      <path
         style="clip-rule:evenodd"
         inkscape:connector-curvature="0"
         id="path11119"
         d="M 1.1802e-5,0 H 792.00001 V 612 H 1.1802e-5 Z" />
    </clipPath>
    <clipPath
       id="clipPath11133"
       clipPathUnits="userSpaceOnUse">
      <path
         style="clip-rule:evenodd"
         inkscape:connector-curvature="0"
         id="path11131"
         d="M 1.1802e-5,0 H 792.00001 V 612 H 1.1802e-5 Z" />
    </clipPath>
    <clipPath
       id="clipPath11145"
       clipPathUnits="userSpaceOnUse">
      <path
         style="clip-rule:evenodd"
         inkscape:connector-curvature="0"
         id="path11143"
         d="M 1.1802e-5,0 H 792.00001 V 612 H 1.1802e-5 Z" />
    </clipPath>
    <clipPath
       id="clipPath11157"
       clipPathUnits="userSpaceOnUse">
      <path
         style="clip-rule:evenodd"
         inkscape:connector-curvature="0"
         id="path11155"
         d="M 1.1802e-5,0 H 792.00001 V 612 H 1.1802e-5 Z" />
    </clipPath>
    <clipPath
       id="clipPath11169"
       clipPathUnits="userSpaceOnUse">
      <path
         style="clip-rule:evenodd"
         inkscape:connector-curvature="0"
         id="path11167"
         d="M 1.1802e-5,0 H 792.00001 V 612 H 1.1802e-5 Z" />
    </clipPath>
    <clipPath
       id="clipPath11181"
       clipPathUnits="userSpaceOnUse">
      <path
         style="clip-rule:evenodd"
         inkscape:connector-curvature="0"
         id="path11179"
         d="M 1.1802e-5,0 H 792.00001 V 612 H 1.1802e-5 Z" />
    </clipPath>
    <clipPath
       id="clipPath11193"
       clipPathUnits="userSpaceOnUse">
      <path
         style="clip-rule:evenodd"
         inkscape:connector-curvature="0"
         id="path11191"
         d="M 1.1802e-5,0 H 792.00001 V 612 H 1.1802e-5 Z" />
    </clipPath>
    <clipPath
       id="clipPath11203"
       clipPathUnits="userSpaceOnUse">
      <path
         style="clip-rule:evenodd"
         inkscape:connector-curvature="0"
         id="path11201"
         d="M 1.1802e-5,0 H 792.00001 V 612 H 1.1802e-5 Z" />
    </clipPath>
    <clipPath
       id="clipPath11211"
       clipPathUnits="userSpaceOnUse">
      <path
         style="clip-rule:evenodd"
         inkscape:connector-curvature="0"
         id="path11209"
         d="M 1.1802e-5,0 H 792.00001 V 612 H 1.1802e-5 Z" />
    </clipPath>
    <clipPath
       id="clipPath11223"
       clipPathUnits="userSpaceOnUse">
      <path
         style="clip-rule:evenodd"
         inkscape:connector-curvature="0"
         id="path11221"
         d="M 1.1802e-5,0 H 792.00001 V 612 H 1.1802e-5 Z" />
    </clipPath>
    <clipPath
       id="clipPath11231"
       clipPathUnits="userSpaceOnUse">
      <path
         style="clip-rule:evenodd"
         inkscape:connector-curvature="0"
         id="path11229"
         d="M 1.1802e-5,0 H 792.00001 V 612 H 1.1802e-5 Z" />
    </clipPath>
    <clipPath
       id="clipPath11243"
       clipPathUnits="userSpaceOnUse">
      <path
         style="clip-rule:evenodd"
         inkscape:connector-curvature="0"
         id="path11241"
         d="M 1.1802e-5,0 H 792.00001 V 612 H 1.1802e-5 Z" />
    </clipPath>
    <clipPath
       id="clipPath11251"
       clipPathUnits="userSpaceOnUse">
      <path
         style="clip-rule:evenodd"
         inkscape:connector-curvature="0"
         id="path11249"
         d="M 1.1802e-5,0 H 792.00001 V 612 H 1.1802e-5 Z" />
    </clipPath>
    <clipPath
       id="clipPath11263"
       clipPathUnits="userSpaceOnUse">
      <path
         style="clip-rule:evenodd"
         inkscape:connector-curvature="0"
         id="path11261"
         d="M 1.1802e-5,0 H 792.00001 V 612 H 1.1802e-5 Z" />
    </clipPath>
    <clipPath
       id="clipPath11275"
       clipPathUnits="userSpaceOnUse">
      <path
         style="clip-rule:evenodd"
         inkscape:connector-curvature="0"
         id="path11273"
         d="M 1.1802e-5,0 H 792.00001 V 612 H 1.1802e-5 Z" />
    </clipPath>
    <clipPath
       id="clipPath11287"
       clipPathUnits="userSpaceOnUse">
      <path
         style="clip-rule:evenodd"
         inkscape:connector-curvature="0"
         id="path11285"
         d="M 1.1802e-5,0 H 792.00001 V 612 H 1.1802e-5 Z" />
    </clipPath>
    <clipPath
       id="clipPath11299"
       clipPathUnits="userSpaceOnUse">
      <path
         style="clip-rule:evenodd"
         inkscape:connector-curvature="0"
         id="path11297"
         d="M 1.1802e-5,0 H 792.00001 V 612 H 1.1802e-5 Z" />
    </clipPath>
    <clipPath
       id="clipPath11311"
       clipPathUnits="userSpaceOnUse">
      <path
         style="clip-rule:evenodd"
         inkscape:connector-curvature="0"
         id="path11309"
         d="M 1.1802e-5,0 H 792.00001 V 612 H 1.1802e-5 Z" />
    </clipPath>
    <clipPath
       id="clipPath11323"
       clipPathUnits="userSpaceOnUse">
      <path
         style="clip-rule:evenodd"
         inkscape:connector-curvature="0"
         id="path11321"
         d="M 1.1802e-5,0 H 792.00001 V 612 H 1.1802e-5 Z" />
    </clipPath>
    <clipPath
       id="clipPath11335"
       clipPathUnits="userSpaceOnUse">
      <path
         style="clip-rule:evenodd"
         inkscape:connector-curvature="0"
         id="path11333"
         d="M 1.1802e-5,0 H 792.00001 V 612 H 1.1802e-5 Z" />
    </clipPath>
    <clipPath
       id="clipPath11343"
       clipPathUnits="userSpaceOnUse">
      <path
         style="clip-rule:evenodd"
         inkscape:connector-curvature="0"
         id="path11341"
         d="M 1.1802e-5,0 H 792.00001 V 612 H 1.1802e-5 Z" />
    </clipPath>
    <clipPath
       id="clipPath11355"
       clipPathUnits="userSpaceOnUse">
      <path
         style="clip-rule:evenodd"
         inkscape:connector-curvature="0"
         id="path11353"
         d="M 1.1802e-5,0 H 792.00001 V 612 H 1.1802e-5 Z" />
    </clipPath>
    <clipPath
       id="clipPath11367"
       clipPathUnits="userSpaceOnUse">
      <path
         style="clip-rule:evenodd"
         inkscape:connector-curvature="0"
         id="path11365"
         d="M 1.1802e-5,0 H 792.00001 V 612 H 1.1802e-5 Z" />
    </clipPath>
  </defs>
  <sodipodi:namedview
     id="base"
     pagecolor="#ffffff"
     bordercolor="#666666"
     borderopacity="1.0"
     inkscape:pageopacity="0.0"
     inkscape:pageshadow="2"
     inkscape:zoom="0.175"
     inkscape:cx="797.95378"
     inkscape:cy="-233.924"
     inkscape:document-units="mm"
     inkscape:current-layer="layer1"
     showgrid="false"
     fit-margin-top="0"
     fit-margin-left="0"
     fit-margin-right="0"
     fit-margin-bottom="0"
     inkscape:window-width="1366"
     inkscape:window-height="715"
     inkscape:window-x="-8"
     inkscape:window-y="-8"
     inkscape:window-maximized="1" />
  <metadata
     id="metadata10204">
    <rdf:RDF>
      <cc:Work
         rdf:about="">
        <dc:format>image/svg+xml</dc:format>
        <dc:type
           rdf:resource="http://purl.org/dc/dcmitype/StillImage" />
        <dc:title></dc:title>
      </cc:Work>
    </rdf:RDF>
  </metadata>
  <g
     inkscape:label="Layer 1"
     inkscape:groupmode="layer"
     id="layer1"
     transform="translate(294.74961,116.03151)">
    <g
       id="g12029"
       transform="translate(16.630952)">
      <path
         id="path11958"
         transform="scale(0.26458333)"
         d="m -883.6875,-426.68555 c -37.28277,0 -67.61637,6.99016 -100.5,23.16211 -26.4554,13.01057 -44.9371,26.41641 -65.0176,47.15625 -18.6331,19.24496 -29.4513,34.70697 -41.5371,59.3711 -14.2743,29.13024 -20.9941,54.68538 -22.8808,87 -1.521,26.05028 1.4175,53.16948 8.3769,77.31054 26.8408,93.106831 109.69197,159.915594 206.03126,166.134769 31.59038,2.039319 66.99324,-2.970917 94.92773,-13.433594 96.32255,-36.077027 156.77781,-128.701005 150.52149,-230.615235 -1.96778,-32.05491 -8.69876,-57.48231 -22.86719,-86.39648 -12.08584,-24.66413 -22.90397,-40.12614 -41.53711,-59.3711 -20.06725,-20.72616 -38.92501,-34.41348 -65.01758,-47.18945 -33.01478,-16.16538 -63.27249,-23.12891 -100.5,-23.12891 z m 2.60547,11.66797 c 44.73446,0.38824 88.03637,14.70939 126.39453,42.32813 13.77944,9.92148 37.27187,33.41395 47.19336,47.19336 28.25159,39.23713 42.08984,81.65283 42.08984,129 0,20.53956 -1.8488,35.31876 -6.87304,54.92187 -21.83551,85.19649 -94.6415,149.9813808 -181.45899,161.466798 -39.77265,5.261707 -77.97165,0.315784 -114.12695,-14.7773436 -68.80502,-28.7228994 -118.59742,-91.1830674 -131.22262,-164.6113244 -18.9038,-109.94408 49.4732,-218.05507 156.44528,-247.35547 20.59615,-5.64143 41.22474,-8.34249 61.55859,-8.16602 z m -3.95508,12.98242 c -31.01589,0.2428 -61.82532,7.36824 -89.15234,21.06055 -40.69195,20.38884 -68.33315,52.62173 -81.93355,95.54102 -6.0415,19.0654 -7.9006,29.63763 -7.9883,45.4375 -0.096,17.3999 1.8302,24.56473 9.6777,35.97656 11.2274,16.32688 12.6407,20.72438 9.0742,28.24023 -4.5147,9.51417 -16.7832,10.51543 -25.8984,2.11328 -13.3731,-12.32688 -16.1456,-41.89522 -7.3262,-78.125 2.1438,-8.80671 1.9178,-11.82506 -0.625,-8.34765 -1.7812,2.43598 -6.0532,20.43967 -8.1152,34.20312 -2.202,14.70967 -2.207,45.13723 -0.01,59.81055 5.4674,36.47866 19.0486,67.967082 40.3808,93.628906 21.4981,25.861418 49.51547,43.002516 85.62893,52.388672 15.19896,3.950325 23.30116,4.880225 38.25977,4.390625 15.82919,-0.518098 21.30908,-2.085992 30.47852,-8.716797 2.96798,-2.146242 7.76154,-5.588696 10.65039,-7.65039 9.3329,-6.660587 18.32733,-5.631267 24.58203,2.8125 5.31178,7.170861 0.92756,19.075746 -9.33594,25.3554684 -9.16755,5.6091592 -16.0326,6.9320008 -35.5,6.8378906 -16.65902,-0.080353 -22.97746,-0.9536203 -44.25,-6.1074219 -1.61231,-0.3906141 -2.25,-0.098375 -2.25,1.03125 0,3.04575119 24.41915,8.800265 44.99805,10.6035157 h 0.002 c 21.77614,1.9076102 50.83053,-0.2998134 70.97656,-5.3925782 59.85982,-15.1321326 101.22084,-51.6070146 119.86328,-105.7050806 7.14898,-20.74546 9.49736,-33.15944 9.53516,-50.34765 0.0417,-19.80557 -1.9786,-26.0861 -13.10742,-40.73047 -2.39448,-3.15089 -5.00876,-7.29786 -5.81055,-9.2168 -5.35192,-12.80898 4.58628,-25.04206 17.51563,-21.56055 8.12126,2.18684 14.62492,10.3826 18.6875,23.54883 1.49469,4.84357 1.8242,9.13716 1.76562,22.95899 -0.0627,14.77068 -0.43762,18.63919 -2.85742,29.5 -3.84045,17.23723 -3.95511,18 -2.71875,18 1.67029,0 2.81236,-2.80673 5.52148,-13.56446 17.22611,-68.40287 -1.9775,-144.35981 -47.5332,-188.01172 -18.03541,-17.28171 -35.93839,-27.94763 -60.45312,-36.01562 -30.78267,-10.13079 -55.25894,-11.91888 -72.88477,-5.32422 -3.04891,1.14074 -9.21103,4.79374 -13.69336,8.11719 -4.48233,3.32344 -9.63373,6.66217 -11.44726,7.41992 -7.93769,3.31657 -17.18752,0.1772 -20.41407,-6.92969 -2.22002,-4.88987 -2.29798,-5.88699 -0.86523,-11.04687 2.43726,-8.77753 13.09437,-16.08166 28.1582,-19.29883 13.21414,-2.82217 41.47229,-0.43252 59.01172,4.99023 3.03077,0.93706 4.97312,1.10978 5.36328,0.47852 1.05347,-1.70457 -0.83263,-2.64457 -10.61719,-5.28906 -18.05142,-4.87884 -36.73616,-7.21013 -55.3457,-7.06446 z m 79.63672,81.99414 c 4.50908,0.10219 8.87709,1.40051 12.8418,4.01758 7.60289,5.01863 10.10568,17.71852 5.90039,29.94141 -4.08873,11.88412 -17.31874,27.74959 -33.84571,40.58594 -3.89472,3.02499 -7.34311,6.13232 -7.66211,6.90625 -0.73239,1.77736 3.67048,8.51674 6.98047,10.68554 2.10452,1.37893 3.21768,1.46402 6.94532,0.52539 2.44131,-0.61473 7.74326,-1.11718 11.7832,-1.11718 8.55923,0 15.28833,2.74698 17.75976,7.25 1.34899,2.45684 1.34719,3.04316 -0.0254,5.5 -2.7411,4.90655 -5.97159,5.74115 -22.49414,5.82226 l -15.02929,0.0742 -6.47071,3.42188 c -3.78304,2.00011 -9.43337,6.36489 -13.60351,10.50976 -12.02287,11.95002 -17.3156,25.97023 -17.34961,45.96094 -0.0297,17.16398 5.26173,31.37378 15.48437,41.58008 21.99844,21.9633 56.40238,13.596933 65.52344,-15.9336 4.96184,-16.06455 -0.24689,-34.62595 -11.32812,-40.37695 -11.75237,-6.09929 -25.69727,0.88957 -25.69727,12.87891 0,4.71549 2.54066,10.6847 5.80273,13.63476 3.34451,3.02439 4.63481,7.20838 3.25196,10.54688 -2.28847,5.52486 -7.98315,6.46511 -15.74414,2.59765 -8.42245,-4.19709 -13.31055,-13.59412 -13.31055,-25.58984 0,-32.01918 44.24633,-46.41749 66.51758,-21.64648 11.78048,13.10273 15.94601,35.59745 9.91797,53.55468 -8.37385,24.945213 -31.1971,41.150087 -58.02539,41.199221 -32.46902,0.0593 -58.00902,-22.733611 -64.00196,-57.117191 -4.95677,-28.43867 6.5242,-58.28863 28.91797,-75.18554 3.94572,-2.97718 8.63634,-6.24603 10.42383,-7.26367 1.78749,-1.01765 3.25,-2.56875 3.25,-3.44727 0,-1.8275 -5.41648,-7.37564 -6.66992,-6.83203 -0.45672,0.19807 -7.80509,5.02689 -16.33008,10.73047 -8.52499,5.70357 -21.24112,13.73992 -28.25781,17.85742 -8.99225,5.27676 -12.88104,8.11807 -13.17774,9.62891 -0.23157,1.17893 -0.94426,8.21953 -1.58398,15.64453 -2.33137,27.05853 -6.53629,43.37904 -15.24609,59.18359 -10.79934,19.596124 -25.84915,32.23099 -42.53321,35.710938 -15.86413,3.307673 -31.33395,-0.96324 -39.12696,-10.802735 -6.0266,-7.609172 -7.5465,-12.461693 -7.5351,-24.091793 0.01,-9.0548 0.3699,-11.36471 2.6308,-16.7793 9.81726,-23.5112 26.0141,-37.56804 70.83204,-61.47266 l 15.5,-8.26562 0.89453,-5.26367 c 0.4921,-2.89495 0.63433,-5.52185 0.31836,-5.83789 -0.31604,-0.31607 -3.57248,0.90039 -7.23828,2.70507 -5.48315,2.69934 -8.14535,3.35879 -15.0039,3.71875 -7.08435,0.37183 -9.01035,0.11288 -12.82227,-1.73242 -5.72587,-2.77186 -12.24689,-9.83802 -14.8418,-16.08203 -1.90552,-4.5852 -2.31394,-4.9342 -6.96484,-5.93164 -13.82321,-2.96455 -23.4414,-13.30451 -25.68744,-27.61719 -1.5289,-9.74261 1.1134,-22.76612 5.6308,-27.75781 2.57193,-2.84194 7.06949,-4.86499 9.26562,-4.16797 3.34379,1.06128 3.96659,3.64265 2.43165,10.07031 -2.18843,9.16383 -1.90891,19.90047 0.65429,25.19532 2.12984,4.39965 6.80817,8.20766 10.09375,8.21484 1.88474,0.004 2.32332,-1.36806 3.29492,-10.30078 0.92251,-8.48134 4.07826,-19.0485 8.52344,-28.53906 11.91954,-25.44848 31.10914,-39.75707 48.48242,-36.15039 10.8994,2.2627 16.23442,10.32009 15.17774,22.92382 -1.95035,23.26368 -21.47221,50.19519 -46.28711,63.85743 -7.81183,4.30092 -8.25568,5.69672 -3.38867,10.65429 2.44951,2.49511 3.63401,2.93001 7.79882,2.86719 6.02431,-0.0909 13.53201,-3.66813 20.88868,-9.95312 4.36047,-3.72527 5.54531,-5.47444 6.90039,-10.17774 2.17198,-7.53876 6.61102,-16.23465 10.61328,-20.79297 3.24752,-3.69873 9.6745,-7.32189 13.06055,-7.36328 2.53092,-0.031 6.70677,4.44418 6.69921,7.18164 -0.0157,6.47363 -5.14749,16.0088 -14.07617,26.15235 -3.77832,4.29239 -4.28956,5.52199 -5.38086,12.94335 -1.2051,8.19546 -1.0793,10.70118 0.53516,10.70118 1.3223,0 17.79974,-10.10625 34.57226,-21.20313 l 15.14454,-10.01953 -0.006,-13.13867 c -0.008,-15.65481 2.02499,-24.83042 8.25781,-37.25391 8.92596,-17.79152 23.71689,-28.23623 37.24414,-27.92969 z m -116.10156,15.73829 c -2.83235,0.1696 -5.97282,2.27008 -10.21875,6.62695 -9.27409,9.51639 -20.9668,35.60977 -20.9668,46.79101 0,4.45527 1.59288,4.36077 7.66016,-0.45117 10.97571,-8.70482 23.07153,-23.77997 27.97656,-34.87109 3.3501,-7.57513 3.04232,-15.06486 -0.70508,-17.16016 -1.23483,-0.69043 -2.45866,-1.01264 -3.74609,-0.93554 z m 114.38672,0.25781 c -5.57781,-0.25265 -12.96703,7.00796 -18.64844,18.85547 -3.46409,7.22374 -6.92383,20.1068 -6.92383,25.78125 0,3.73031 3.28948,1.81833 11.64844,-6.76953 13.47987,-13.84902 21.65942,-27.62471 19.82812,-33.39454 -0.34518,-1.0876 -1.7013,-2.68111 -3.01367,-3.54101 -0.88636,-0.58077 -1.8577,-0.88485 -2.89062,-0.93164 z m -116.70704,124.5625 c -2.09397,0.0216 -15.24046,7.39962 -26.36523,14.79687 -13.93882,9.26844 -29.88351,25.26398 -34.91992,35.03125 -7.79244,15.11202 -5.72769,28.82972 4.91992,32.683597 2.58327,0.935017 5.77096,1.240919 9,0.865234 21.02623,-2.447089 37.30266,-24.853251 45.31836,-62.390621 3.06153,-14.337 3.71077,-21.00372 2.04687,-20.98633 z"
         style="opacity:1;fill:#0063a7;fill-opacity:1;stroke-width:1.00000012"
         inkscape:connector-curvature="0" />
      <path
         id="path11958-8"
         d="m -130.14037,-79.323315 c -4.52057,-0.06158 -9.06223,0.991925 -12.38736,2.916102 -2.57131,1.487953 -5.72743,4.775118 -7.059,7.352006 -2.09115,4.046821 -2.92528,8.520383 -2.44843,13.12943 0.33562,3.244003 0.87568,5.243338 2.10064,7.772654 2.80437,5.790475 8.33853,9.345933 15.4125,9.902238 4.05843,0.319156 8.33115,-0.08977 12.27419,-1.174608 1.28766,-0.354269 2.48802,-0.847685 2.67115,-1.098124 0.25163,-0.344156 0.33228,-2.658144 0.33228,-9.51363 0,-7.882364 -0.0537,-9.112573 -0.41548,-9.474357 -0.35305,-0.353044 -1.30387,-0.415478 -6.29987,-0.415478 -4.34786,0 -6.00373,0.08789 -6.34432,0.336929 -0.3773,0.275664 -0.44647,0.673057 -0.38137,2.182812 l 0.0796,1.845884 3.83646,0.132292 3.83646,0.132292 0.0713,5.873025 0.0713,5.873028 -0.99736,0.308506 c -1.7266,0.533755 -7.62387,0.621919 -9.66245,0.144696 -5.24699,-1.228299 -8.97182,-4.968378 -10.43606,-10.479464 -0.62653,-2.35812 -0.62653,-7.696051 0,-10.054166 1.883,-7.087193 7.40203,-11.092516 15.3076,-11.108367 2.5247,-0.005 5.55341,0.490349 7.31687,1.196826 0.66197,0.265203 1.23991,0.359471 1.37562,0.223759 0.34015,-0.340175 1.31679,-3.595228 1.15652,-3.854546 -0.49662,-0.803545 -3.94669,-1.751221 -7.47861,-2.054137 -0.64135,-0.05501 -1.28639,-0.08681 -1.93218,-0.0956 z m 73.337638,0.339516 c -1.341001,0 -2.676832,0.112464 -2.958475,0.337447 -0.405961,0.324289 -13.445692,38.535335 -13.445692,39.400694 0,0.242435 0.148829,0.501243 0.33073,0.574643 0.710385,0.286647 4.340315,0.167759 4.74958,-0.155546 0.230264,-0.181901 1.292717,-2.979872 2.361097,-6.217708 l 1.942518,-5.886979 h 6.930842 6.930838 l 0.5116,1.389062 c 0.28151,0.763982 1.19325,3.44383 2.02623,5.955708 1.02539,3.092063 1.67256,4.651531 2.0035,4.828646 0.60963,0.32626 4.49112,0.338362 5.00125,0.0155 0.3086,-0.195318 -0.82541,-3.786095 -6.28644,-19.905763 -4.01682,-11.856684 -6.839919,-19.798875 -7.108096,-19.998257 -0.302609,-0.224983 -1.648481,-0.337447 -2.989482,-0.337447 z m -44.100148,0.01035 c -8.8339,-0.0035 -10.15359,0.04826 -10.51719,0.411861 -0.37038,0.370419 -0.41599,2.533306 -0.41599,19.825147 0,17.291839 0.0456,19.454209 0.41599,19.824629 0.36394,0.363945 1.71817,0.415996 10.86497,0.415996 6.697155,0 10.63361,-0.09835 10.961606,-0.273886 0.428551,-0.229354 0.511595,-0.565166 0.511595,-2.063956 0,-1.039334 -0.132926,-1.922997 -0.317293,-2.107367 -0.233421,-0.233418 -2.510602,-0.317291 -8.598958,-0.317291 h -8.28166 v -7.011458 -7.011459 l 7.077599,-0.0036 c 3.892682,-0.0021 7.345495,-0.07555 7.672917,-0.163295 0.552563,-0.148082 0.595312,-0.306935 0.595312,-2.214335 0,-1.9074 -0.04275,-2.066772 -0.595312,-2.214854 -0.327422,-0.08774 -3.780235,-0.160678 -7.672917,-0.162779 l -7.077599,-0.0036 v -6.0818 -6.081283 l 8.003641,-0.07028 8.003645,-0.06976 0.07803,-2.093931 c 0.05578,-1.496335 -0.01971,-2.155679 -0.264582,-2.311019 -0.188449,-0.119546 -4.888026,-0.21959 -10.443804,-0.221691 z m 97.2348861,0.260966 c -1.15252,0 -1.44616,0.116504 -2.20813,0.878499 -1.68103,1.68102 -1.3543,4.262713 0.66714,5.272545 1.1149,0.556959 1.84971,0.58179 2.99723,0.10232 2.17742002,-0.909775 2.55355002,-3.99756 0.67903,-5.574853 -0.63127,-0.53118 -1.09472,-0.678511 -2.13527,-0.678511 z m 61.6479199,0 c -1.15252,0 -1.44615,0.116504 -2.20813,0.878499 -1.68103,1.68102 -1.35431,4.262713 0.66714,5.272545 1.1149,0.556959 1.8497,0.58179 2.99723,0.10232 2.17741,-0.909775 2.55355,-3.99756 0.67903,-5.574853 -0.63127,-0.53118 -1.09471,-0.678511 -2.13527,-0.678511 z m -16.08997,3.216342 c -0.30807,0.01416 -0.79976,0.122668 -1.64021,0.33383 -3.20556,0.805397 -3.12539,0.692449 -3.12539,4.393012 v 3.169316 h -1.83297 c -2.30653,0 -2.66495,0.302311 -2.66495,2.248959 0,1.942092 0.36085,2.248958 2.64222,2.248958 h 1.81022 l 0.10594,9.458854 c 0.0915,8.144561 0.16954,9.624291 0.56224,10.64948 1.10808,2.892729 2.84542,4.347045 5.62756,4.712372 h 0.002 c 1.72789,0.226888 3.6826,0.132262 5.20433,-0.25218 l 1.00356,-0.253733 -0.0775,-1.904793 -0.0775,-1.904791 -2.42724,-0.132292 c -2.10369,-0.114649 -2.51845,-0.2179 -3.10937,-0.774115 -0.37503,-0.352994 -0.80016,-1.067369 -0.94465,-1.5875 -0.14874,-0.535467 -0.26407,-4.647034 -0.26407,-9.47849 l -0.003,-8.532812 h 3.28869 c 3.91753,0 4.11964,-0.110485 4.11964,-2.248958 0,-2.138477 -0.20211,-2.248959 -4.11964,-2.248959 h -3.28873 l -0.004,-3.63802 c -0.0028,-2.000915 -0.11444,-3.811755 -0.24871,-4.024046 -0.10606,-0.167677 -0.2304,-0.248245 -0.53847,-0.234092 z m -98.801725,2.736783 c 0.11195,0 0.651126,1.547813 1.198377,3.439584 0.547251,1.89177 1.776275,5.686443 2.731098,8.432559 0.95482,2.746113 1.73581,5.097597 1.73581,5.225521 0,0.12792 -2.50031,0.232545 -5.556248,0.232545 -4.347252,0 -5.55625,-0.07421 -5.55625,-0.340032 0,-0.18686 0.662223,-2.300219 1.471229,-4.696354 0.809009,-2.396133 1.98864,-6.14226 2.621545,-8.325073 0.632904,-2.182812 1.242488,-3.96875 1.354439,-3.96875 z m 74.261615,4.804873 c -4.26693,-0.0085 -9.5942399,1.52223 -9.5942399,2.974496 0,0.281115 0.23983,1.069994 0.53278,1.753381 0.59243,1.382062 0.3653,1.362882 3.2468299,0.274921 5.10159,-1.92618 9.57863,-0.732394 10.63863,2.837034 0.2191,0.737833 0.39842,1.669957 0.39842,2.071193 0,0.812734 -0.11122,0.842801 -4.26795,1.155483 -5.56697,0.418769 -10.4232399,3.017813 -11.9072899,6.372738 -1.134,2.563606 -1.11887,5.786639 0.0377,8.053771 0.61536,1.206183 2.6525,3.090879 3.9165499,3.623035 0.53692,0.226042 1.57148,0.499785 2.29909,0.608232 3.2036,0.477475 6.43734,-0.437454 9.02322,-2.552813 0.59706,-0.488429 1.15833,-0.887802 1.24747,-0.887802 0.0892,0 0.24179,0.599326 0.339,1.332217 0.11723,0.883714 0.33725,1.418413 0.65319,1.5875 0.55565,0.297373 3.69233,0.337857 4.08915,0.05271 0.44643,-0.320807 0.0129,-20.229153 -0.47749,-21.929926 -1.24333,-4.311859 -3.99088,-6.666458 -8.42998,-7.22385 -0.54765,-0.06877 -1.13555,-0.101097 -1.74511,-0.10232 z m 63.82246,0.02119 c -4.02016,-0.0072 -7.05597,1.172734 -9.8025,3.810104 -2.82255,2.710338 -4.0533,5.64792 -4.27571,10.205061 -0.17272,3.538987 0.16325,5.549067 1.36064,8.146275 1.88034,4.078523 5.64584,6.834269 10.31565,7.549925 0.74184,0.113691 2.06314,0.150066 2.93626,0.08062 8.3075,-0.660784 13.41687,-6.380673 13.43277,-15.038875 0.008,-4.614455 -1.31802,-8.216297 -4.02198,-10.920264 -2.64756,-2.647551 -5.70352,-3.82524 -9.94513,-3.832842 z m 34.661964,0.0067 c -2.86922,0.02735 -5.76617,1.146918 -7.77781,3.212208 -0.70718,0.72603 -1.35899,1.247061 -1.44849,1.157552 -0.0896,-0.08951 -0.16278,-0.848759 -0.16278,-1.687237 0,-2.024451 -0.34868,-2.357512 -2.466,-2.35231 -0.89911,0.0021 -1.79967,0.108707 -2.00091,0.236162 -0.30487,0.193101 -0.35786,2.563151 -0.31936,14.217219 0.0418,12.650771 0.0874,14.017273 0.48214,14.31644 0.65992,0.500129 4.1608,0.436327 4.6824,-0.08527 0.36166,-0.361702 0.41548,-1.588067 0.41548,-9.428364 0,-5.93267 0.10246,-9.353037 0.29921,-10.009727 0.16438,-0.548675 0.72993,-1.567784 1.25677,-2.264461 2.8757,-3.802729 8.84884,-3.584154 10.86237,0.397391 0.92784,1.834703 1.0754,3.544647 1.0754,12.464357 0,10.056678 -0.24826,9.2568 2.87425,9.2568 2.93793,0 2.75003,0.757359 2.61533,-10.560598 -0.0962,-8.087558 -0.18918,-9.941213 -0.56687,-11.267527 -0.8627,-3.029625 -2.47587,-5.157206 -4.88344,-6.440435 -1.50466,-0.801986 -3.21615,-1.178613 -4.93769,-1.162203 z m -120.6747939,0.288356 c -1.63085,0.07307 -1.42679,1.495068 -1.42679,14.586188 0,13.054648 0.0313,14.018983 0.46302,14.270448 0.77047,0.44876 4.19412,0.353391 4.67775,-0.130225 0.36727002,-0.367287 0.41548002,-2.015652 0.41548002,-14.136087 0,-12.120439 -0.0482,-13.769319 -0.41548002,-14.136606 -0.29871,-0.298717 -0.93694,-0.415478 -2.26653,-0.415478 -0.59682,0 -1.07111,-0.05511 -1.44745,-0.03824 z m 61.6479099,0 c -1.63084,0.07307 -1.42678,1.495068 -1.42678,14.586188 0,13.054648 0.0313,14.018983 0.46302,14.270448 0.77047,0.44876 4.19411,0.353391 4.67775,-0.130225 0.36726,-0.367287 0.41548,-2.015652 0.41548,-14.136087 0,-12.120439 -0.0482,-13.769319 -0.41548,-14.136606 -0.29872,-0.298717 -0.93695,-0.415478 -2.26653,-0.415478 -0.59683,0 -1.07111,-0.05511 -1.44746,-0.03824 z m -91.96699,0.04444 c -1.13553,-0.02106 -2.27723,0.05318 -2.57039,0.238747 -0.30427,0.192601 0.60419,2.825975 4.85862,14.084927 3.19357,8.451485 5.43882,14.028693 5.7614,14.311273 0.39489,0.345924 0.99407,0.463021 2.36885,0.463021 1.01211,0 2.04935,-0.112101 2.30529,-0.249081 0.29842,-0.159711 2.4428,-5.293831 5.97793,-14.311789 4.46423,-11.388027 5.44189,-14.108107 5.13973,-14.299385 -0.57798,-0.365877 -4.57091,-0.297162 -5.05033,0.08682 -0.35463,0.284033 -4.66999,12.314645 -7.16959,19.988443 -0.44074,1.353053 -0.88746,2.365084 -0.99271,2.248959 -0.10528,-0.116129 -0.70171,-1.758651 -1.3255,-3.650422 -2.97532,-9.023401 -6.34325,-18.266043 -6.77013,-18.578195 -0.26802,-0.195983 -1.39765,-0.312241 -2.53317,-0.333315 z m 116.33708,3.864883 c 5.08907,0.03448 8.32228,4.195977 8.33127,10.723375 0.006,4.727178 -2.05454,8.551032 -5.40742,10.032463 -2.99471,1.323181 -6.49684,0.580567 -8.68525,-1.841749 -1.94925,-2.157577 -2.83136,-4.722651 -2.83136,-8.233087 0,-6.501821 3.39047,-10.716253 8.59276,-10.681002 z m -58.7375,10.54871 0.0749,2.968294 c 0.0681,2.704225 0.0176,3.080986 -0.56896,4.233334 -0.76091,1.494941 -1.46964,2.186188 -3.05873,2.984312 -1.31923,0.662591 -3.69013,0.910185 -4.96248,0.518316 -2.61226,-0.804556 -3.79041,-4.587838 -2.25516,-7.241937 1.12437,-1.943775 4.48829,-3.263855 8.65373,-3.395657 z"
         style="opacity:1;fill:#005db7;fill-opacity:1;stroke-width:0.26458338"
         inkscape:connector-curvature="0" />
    </g>
  </g>
</svg>
