<svg version="1" xmlns="http://www.w3.org/2000/svg" width="668" height="668" viewBox="0 0 501.000000 501.000000"><path d="M353.5 98.1c-45.3 3.4-78.4 27-88.1 62.9-2.4 8.9-2.5 29.8-.1 39.5 5.9 23.4 21.4 39 55 55 13.8 6.5 25.8 10.9 46.7 17 14.9 4.3 26.1 8.9 29.9 12.1 5.5 4.6 5.6 14.4.4 21.2-3.4 4.4-9.7 7.2-18.1 7.9-22.8 1.8-43.2-11.2-43.2-27.5 0-8.4.8-8.2-36.7-8.2-39.9 0-36.8-1.4-36 16.4.8 19 5.4 31.8 16.3 46.2 18.1 23.9 49.5 36.6 90.4 36.6 36.2 0 63.4-9.6 83-29.2 12.8-12.8 18.4-23.8 21.6-42.3 3.9-22.4-2.5-44.7-17.3-60.7-13.5-14.6-22.4-19.2-56.9-29.9-29.6-9.2-40.3-13-49.2-17.4-13.4-6.7-18-15.4-13.2-25.1 4.6-9.4 18.2-13.5 34.5-10.5 7.7 1.4 14.6 5 19.9 10.2 5.3 5.3 7.8 10.7 8.4 17.7.2 3.4 1 6 2 6.7 1.2 1 9.7 1.3 34.4 1.3 40.2 0 37.4 1.2 36.5-14.9-1.2-20.7-8.3-37.4-22.5-52.2-8.6-9.1-16.9-15.3-28-20.8-18.7-9.4-44.8-13.9-69.7-12zM167.2 101.8c-.7.5-1.7 2.4-2.2 4.3-.6 2.1-1 37.5-1 93.4 0 58.9-.4 91.3-1 93.7-.6 2.1-2.5 5.7-4.3 8-11.5 15.1-37.4 17.1-51 4-6.5-6.2-7.9-10.1-8.7-23.7-.4-6.6-1.1-12.8-1.5-13.7-.3-.9-2-2.1-3.7-2.7-4.2-1.5-60.4-1.5-64.6 0-4.5 1.6-5.6 6.3-4.7 20.9 1.4 22.7 6.1 37 17 51.9 14.6 19.9 36.8 32.6 65.3 37.6 10.3 1.8 35.7 2.1 45.8.5 42.7-6.8 70.7-29.2 82.1-65.7l2.8-8.8.3-97.9c.2-87.2.1-98.1-1.3-100.2L235 101h-33.3c-18.2 0-33.8.4-34.5.8zM20 395.3c0 6.2 0 6.3 3.2 7.2 2.8.9 3.7 2 6.3 8 1.6 3.9 3.8 8.5 4.8 10.3l1.8 3.2h26l2.3-5.3c1.3-2.8 3.3-8.2 4.5-12 1.3-3.7 2.4-6.7 2.6-6.7.2 0 1.3 3 2.6 6.7 1.2 3.8 3.2 9.2 4.5 12l2.3 5.3h25.2l2.3-5.3c1.3-2.8 3.3-8.2 4.5-12 1.3-3.7 2.4-6.7 2.6-6.7.2 0 1.3 3 2.6 6.7 1.2 3.8 3.2 9.2 4.5 12l2.3 5.3h25.2l2.3-5.3c1.3-2.8 3.3-8.2 4.5-12 1.3-3.7 2.4-6.7 2.6-6.7.2 0 1.3 3 2.6 6.7 1.2 3.8 3.2 9.2 4.5 12l2.3 5.3h25.2l2.3-5.3c1.3-2.8 3.3-8.2 4.5-12 1.3-3.7 2.4-6.7 2.6-6.7.2 0 1.3 3 2.6 6.7 1.2 3.8 3.2 9.2 4.5 12l2.3 5.3h25.9l2.1-3.4c1.2-1.8 3.5-6.6 5.1-10.6 1.7-4 3.9-8 5-8.7 1.6-1.1 2-2.6 2-6.9V389h-15.1l-2.6 5.7c-7.3 16.6-8.6 19.2-9.4 18.8-.4-.3-1.7-3.6-3-7.3-1.2-3.7-3.2-9.1-4.5-12l-2.3-5.2h-25.2l-2.3 5.2c-1.3 2.9-3.3 8.3-4.5 12-1.3 3.8-2.4 6.8-2.6 6.8-.2 0-1.3-3-2.6-6.8-1.2-3.7-3.2-9.1-4.5-12l-2.3-5.2h-25.2l-2.3 5.2c-1.3 2.9-3.3 8.3-4.5 12-1.3 3.8-2.4 6.8-2.6 6.8-.2 0-1.3-3-2.6-6.8-1.2-3.7-3.2-9.1-4.5-12l-2.3-5.2h-25.2l-2.3 5.2c-1.3 2.9-3.3 8.3-4.5 12-1.3 3.8-2.4 6.8-2.6 6.8-.2 0-1.3-3-2.6-6.8-1.2-3.7-3.2-9.1-4.5-12l-2.3-5.2H58.9l-2.3 5.2c-1.3 2.9-3.3 8.3-4.5 12-1.3 3.7-2.6 7-3.1 7.3-.7.5-3.9-6-8-16.5-1.2-3-2.6-6.1-3.2-6.7-.7-.9-3.9-1.3-9.4-1.3H20v6.3z"/></svg>